#!OML:ASF X:\für Bonn\!DataBase\2005_08_10_Bjorn_Final\c3d\bjorn.ASF
:FULLY-SPECIFIED
:DEGREES
47
root 0.745358 19.1668 2.75931 -181.376 -29.0792 -180.314
lowerback -0.57033 0.188897 -6.16975
upperback 9.92987 0.0609871 -3.21426
thorax 10.9214 -0.705457 -0.0811875
lowerneck -3.81108 -9.79011 -0.366503
upperneck 20.901 -19.2849 14.6047
head 8.72652 -8.77847 2.99422
rclavicle -3.57812e-015 6.83819e-014
rhumerus -38.4875 -12.117 -82.0277
rradius 26.4957
rwrist 16.755
rhand -7.05583 9.75989
rfingers 7.12502
rthumb 18.8171 -19.35
lclavicle -3.57812e-015 6.83819e-014
lhumerus -4.97222 -24.675 74.0342
lradius 89.5054
lwrist 15.5583
lhand -30.8717 -20.8995
lfingers 7.12502
lthumb -4.15923 9.03961
rfemur -22.9991 2.92584 15.6914
rtibia 61.9705
rfoot -12.2669 -5.38756
rtoes -21.1974
lfemur -8.83674 5.23228 -20.6323
ltibia 29.421
lfoot -10.6753 -17.4533
ltoes 5.90367
48
root 0.752316 19.1745 2.78532 -182.009 -29.6867 -180.117
lowerback -0.0185616 -0.041115 -6.21419
upperback 10.124 -0.326972 -3.20954
thorax 10.8287 -0.915759 -0.0891737
lowerneck -3.72563 -9.67946 -0.163233
upperneck 20.8532 -19.1254 14.5488
head 8.65545 -8.70781 2.97118
rclavicle 9.18385e-014 1.11319e-014
rhumerus -38.1021 -11.7225 -82.3992
rradius 26.5549
rwrist 16.8429
rhand -6.72466 9.75815
rfingers 7.12502
rthumb 19.1356 -19.3205
lclavicle 9.18385e-014 1.11319e-014
lhumerus -3.1736 -24.0154 74.3104
lradius 90.9501
lwrist 15.215
lhand -30.7541 -20.7254
lfingers 7.12502
lthumb -4.0457 9.2159
rfemur -24.5211 3.193 15.631
rtibia 65.0739
rfoot -11.08 -3.92977
rtoes -16.3339
lfemur -8.16703 5.0299 -20.4254
ltibia 28.9944
lfoot -10.213 -17.8075
ltoes 6.37224
49
root 0.76047 19.1862 2.81064 -182.627 -30.3069 -179.937
lowerback 0.555289 -0.271235 -6.28177
upperback 10.3148 -0.717372 -3.21253
thorax 10.7212 -1.12977 -0.0877899
lowerneck -3.65794 -9.58376 -0.0405698
upperneck 20.8035 -18.9806 14.5169
head 8.59834 -8.64503 2.96462
rclavicle 9.93923e-015 -2.22639e-014
rhumerus -37.7008 -11.337 -82.7623
rradius 26.5914
rwrist 16.957
rhand -6.34433 9.7899
rfingers 7.12502
rthumb 19.5013 -19.2521
lclavicle 9.93923e-015 -2.22639e-014
lhumerus -1.34248 -23.3772 74.617
lradius 92.3853
lwrist 14.7336
lhand -30.72 -20.5007
lfingers 7.12502
lthumb -4.01272 9.44127
rfemur -26.127 3.33626 15.5075
rtibia 68.2303
rfoot -10.2676 -2.57064
rtoes -13.2064
lfemur -7.47091 4.78642 -20.2482
ltibia 28.4939
lfoot -9.74258 -18.11
ltoes 6.7278
50
root 0.768849 19.205 2.83579 -183.259 -30.942 -179.755
lowerback 1.09845 -0.503831 -6.40083
upperback 10.5797 -1.11552 -3.184
thorax 10.7223 -1.36171 -0.0260615
lowerneck -3.70229 -9.47454 0.119548
upperneck 20.6968 -18.7792 14.4475
head 8.52966 -8.54644 2.94038
rclavicle 4.65156e-014 1.74931e-014
rhumerus -37.1643 -10.8742 -83.1343
rradius 26.6395
rwrist 17.0564
rhand -5.96677 9.79013
rfingers 7.12502
rthumb 19.8643 -19.2147
lclavicle 4.65156e-014 1.74931e-014
lhumerus 0.648661 -22.6754 74.943
lradius 93.7708
lwrist 14.1099
lhand -30.7671 -20.3658
lfingers 7.12502
lthumb -4.05822 9.57531
rfemur -27.7658 3.44493 15.3542
rtibia 71.4005
rfoot -9.8114 -1.45117
rtoes -12.1566
lfemur -6.72517 4.5197 -20.0855
ltibia 27.9211
lfoot -9.23236 -18.3642
ltoes 7.00991
51
root 0.778406 19.2277 2.86074 -183.93 -31.5729 -179.509
lowerback 1.65704 -0.729215 -6.47157
upperback 10.8494 -1.51029 -3.15634
thorax 10.7206 -1.58901 0.0123173
lowerneck -3.74981 -9.35001 0.34886
upperneck 20.5847 -18.5492 14.3375
head 8.44768 -8.43255 2.89573
rclavicle 2.22639e-014 -3.49861e-014
rhumerus -36.6592 -10.468 -83.5098
rradius 26.6991
rwrist 17.1618
rhand -5.63447 9.80985
rfingers 7.12502
rthumb 20.1837 -19.1616
lclavicle 2.22639e-014 -3.49861e-014
lhumerus 2.6279 -22.0188 75.2762
lradius 95.1203
lwrist 13.3785
lhand -30.9946 -20.4623
lfingers 7.12502
lthumb -4.27793 9.47452
rfemur -29.4468 3.56381 15.2483
rtibia 74.5614
rfoot -9.49637 -0.515637
rtoes -12.7783
lfemur -5.94441 4.16905 -19.873
ltibia 27.2911
lfoot -8.69806 -18.5589
ltoes 7.42845
52
root 0.789463 19.2483 2.88504 -184.6 -32.2206 -179.258
lowerback 2.20391 -0.972777 -6.59504
upperback 11.1296 -1.93077 -3.10345
thorax 10.7464 -1.83711 0.107107
lowerneck -3.73668 -9.21127 0.483775
upperneck 20.3869 -18.2685 14.271
head 8.3338 -8.30395 2.88981
rclavicle -1.31198e-014 8.74653e-014
rhumerus -36.1682 -9.95976 -83.8759
rradius 26.7893
rwrist 17.2732
rhand -5.37186 9.84244
rfingers 7.12502
rthumb 20.4361 -19.1021
lclavicle -1.31198e-014 8.74653e-014
lhumerus 4.63846 -21.3258 75.7128
lradius 96.3436
lwrist 12.5268
lhand -31.4381 -20.7861
lfingers 7.12502
lthumb -4.70616 9.14168
rfemur -31.1773 3.57599 15.1101
rtibia 77.7149
rfoot -9.29691 0.372406
rtoes -14.6026
lfemur -5.15171 3.82005 -19.6665
ltibia 26.6239
lfoot -8.21913 -18.7384
ltoes 7.45638
53
root 0.80307 19.2673 2.90758 -185.289 -32.8914 -178.984
lowerback 2.77632 -1.2039 -6.70561
upperback 11.406 -2.33936 -3.0722
thorax 10.7542 -2.07829 0.177468
lowerneck -3.7282 -9.09779 0.63217
upperneck 20.2051 -18.0384 14.2162
head 8.23209 -8.19722 2.87883
rclavicle -4.96962e-014 -1.59028e-015
rhumerus -35.7512 -9.53773 -84.2753
rradius 26.9065
rwrist 17.3191
rhand -5.26483 9.83683
rfingers 7.12502
rthumb 20.5389 -19.0967
lclavicle -4.96962e-014 -1.59028e-015
lhumerus 6.81129 -20.7579 76.1661
lradius 97.2927
lwrist 11.6738
lhand -32.0198 -21.4132
lfingers 7.12502
lthumb -5.26787 8.50127
rfemur -32.9298 3.52817 14.9517
rtibia 80.8401
rfoot -9.15011 1.21432
rtoes -16.3618
lfemur -4.37256 3.43639 -19.4448
ltibia 25.965
lfoot -7.72735 -18.9206
ltoes 7.59282
54
root 0.817994 19.2849 2.92641 -186.023 -33.6442 -178.661
lowerback 3.34051 -1.46243 -6.8277
upperback 11.7102 -2.78929 -3.02902
thorax 10.8076 -2.34518 0.264962
lowerneck -3.71364 -8.97948 0.774841
upperneck 19.992 -17.79 14.1626
head 8.11836 -8.08304 2.87157
rclavicle 2.38542e-014 -1.90833e-014
rhumerus -35.3217 -9.0963 -84.676
rradius 27.0071
rwrist 17.3756
rhand -5.25274 9.86466
rfingers 7.12502
rthumb 20.5506 -19.0676
lclavicle 2.38542e-014 -1.90833e-014
lhumerus 9.07517 -20.2358 76.6518
lradius 98.1069
lwrist 10.881
lhand -32.6548 -22.0925
lfingers 7.12502
lthumb -5.88094 7.8059
rfemur -34.6738 3.35546 14.799
rtibia 83.943
rfoot -9.0982 2.01367
rtoes -18.1998
lfemur -3.5754 2.9493 -19.1947
ltibia 25.3172
lfoot -7.23206 -19.0879
ltoes 7.74193
55
root 0.835408 19.303 2.94167 -186.736 -34.4065 -178.356
lowerback 3.89205 -1.72786 -7.02807
upperback 12.01 -3.24891 -2.97256
thorax 10.8766 -2.62624 0.411585
lowerneck -3.64168 -8.84335 0.871043
upperneck 19.7297 -17.4995 14.1283
head 7.98037 -7.95578 2.88584
rclavicle -1.94809e-014 -2.38542e-014
rhumerus -34.911 -8.67663 -85.0282
rradius 27.081
rwrist 17.4309
rhand -5.36554 9.92589
rfingers 7.12502
rthumb 20.4422 -19.018
lclavicle -1.94809e-014 -2.38542e-014
lhumerus 11.3664 -19.7563 77.218
lradius 98.7879
lwrist 10.1619
lhand -33.3678 -22.7858
lfingers 7.12502
lthumb -6.56928 7.09227
rfemur -36.4629 3.14444 14.5922
rtibia 87.0099
rfoot -9.07715 2.79323
rtoes -20.07
lfemur -2.80147 2.46195 -18.9726
ltibia 24.6788
lfoot -6.78479 -19.2382
ltoes 7.70851
56
root 0.855028 19.3211 2.95418 -187.495 -35.2123 -178.018
lowerback 4.48141 -1.9861 -7.22227
upperback 12.3201 -3.7077 -2.93436
thorax 10.9398 -2.90843 0.539978
lowerneck -3.59626 -8.71372 1.01934
upperneck 19.4853 -17.2353 14.0958
head 7.85297 -7.83614 2.88724
rclavicle 8.90555e-014 7.15625e-014
rhumerus -34.5253 -8.39505 -85.3753
rradius 27.1343
rwrist 17.4359
rhand -5.5025 10.0326
rfingers 7.12502
rthumb 20.3105 -18.9254
lclavicle 8.90555e-014 7.15625e-014
lhumerus 13.6452 -19.3986 77.8068
lradius 99.3996
lwrist 9.5192
lhand -33.9866 -23.4001
lfingers 7.12502
lthumb -7.1666 6.45855
rfemur -38.2527 2.88878 14.3641
rtibia 90.0178
rfoot -9.07129 3.59913
rtoes -21.7547
lfemur -1.98816 1.93724 -18.7258
ltibia 24.0156
lfoot -6.30589 -19.418
ltoes 7.82348
57
root 0.879002 19.3386 2.96491 -188.283 -36.0033 -177.634
lowerback 5.07767 -2.24442 -7.47115
upperback 12.6505 -4.17616 -2.85176
thorax 11.0399 -3.20764 0.746667
lowerneck -3.57301 -8.57599 1.08952
upperneck 19.2098 -16.939 14.0717
head 7.72383 -7.70283 2.90513
rclavicle -1.08934e-013 4.13472e-014
rhumerus -34.0773 -8.01083 -85.6981
rradius 27.1589
rwrist 17.3584
rhand -5.69896 10.1305
rfingers 7.12502
rthumb 20.1217 -18.8475
lclavicle -1.08934e-013 4.13472e-014
lhumerus 15.9058 -19.0442 78.4976
lradius 100.009
lwrist 8.90912
lhand -34.5251 -23.7927
lfingers 7.12502
lthumb -7.6864 6.04763
rfemur -40.0771 2.63296 14.1407
rtibia 92.9482
rfoot -8.96434 4.44507
rtoes -22.8575
lfemur -1.18193 1.40032 -18.4442
ltibia 23.3367
lfoot -5.83739 -19.579
ltoes 7.84303
58
root 0.905699 19.356 2.97406 -189.126 -36.7584 -177.22
lowerback 5.73945 -2.47347 -7.71818
upperback 12.9619 -4.61603 -2.7723
thorax 11.0848 -3.49334 0.960912
lowerneck -3.45623 -8.43466 1.10233
upperneck 18.9186 -16.641 14.0908
head 7.58152 -7.57677 2.95065
rclavicle -4.29375e-014 -3.49861e-014
rhumerus -33.7314 -7.74637 -85.9574
rradius 27.1861
rwrist 17.3575
rhand -5.92516 10.3144
rfingers 7.12502
rthumb 19.9043 -18.6863
lclavicle -4.29375e-014 -3.49861e-014
lhumerus 18.0332 -18.8124 79.1839
lradius 100.621
lwrist 8.44351
lhand -34.9792 -24.0378
lfingers 7.12502
lthumb -8.12469 5.786
rfemur -41.8983 2.40557 13.9111
rtibia 95.7915
rfoot -8.67173 5.35621
rtoes -23.2022
lfemur -0.31727 0.883731 -18.1411
ltibia 22.6197
lfoot -5.36911 -19.7293
ltoes 7.79696
